<svg width="28" height="28" viewBox="0 0 28 28" fill="none" xmlns="http://www.w3.org/2000/svg">
<path d="M13.0102 0.409905C13.2727 0.147443 13.6288 0 14 0C14.3712 0 14.7273 0.147443 14.9898 0.409905L19.1899 4.60995C19.4449 4.874 19.586 5.22764 19.5828 5.59472C19.5796 5.9618 19.4324 6.31294 19.1728 6.57252C18.9132 6.83209 18.5621 6.97933 18.195 6.98252C17.8279 6.98571 17.4743 6.8446 17.2102 6.58957L15.4 4.77935V18.1999C15.4 18.5712 15.2525 18.9273 14.99 19.1899C14.7274 19.4524 14.3713 19.5999 14 19.5999C13.6287 19.5999 13.2726 19.4524 13.01 19.1899C12.7475 18.9273 12.6 18.5712 12.6 18.1999V4.77935L10.7898 6.58957C10.5257 6.8446 10.1721 6.98571 9.80499 6.98252C9.43791 6.97933 9.08677 6.83209 8.8272 6.57252C8.56762 6.31294 8.42039 5.9618 8.4172 5.59472C8.41401 5.22764 8.55512 4.874 8.81014 4.60995L13.0102 0.409905ZM2.79988 12.5998C2.79988 11.8572 3.09488 11.145 3.61999 10.6199C4.1451 10.0948 4.8573 9.79981 5.59991 9.79981H8.39994C8.77125 9.79981 9.12735 9.94731 9.3899 10.2099C9.65245 10.4724 9.79995 10.8285 9.79995 11.1998C9.79995 11.5711 9.65245 11.9272 9.3899 12.1898C9.12735 12.4523 8.77125 12.5998 8.39994 12.5998H5.59991V25.2H22.4001V12.5998H19.6001C19.2288 12.5998 18.8727 12.4523 18.6101 12.1898C18.3475 11.9272 18.2 11.5711 18.2 11.1998C18.2 10.8285 18.3475 10.4724 18.6101 10.2099C18.8727 9.94731 19.2288 9.79981 19.6001 9.79981H22.4001C23.1427 9.79981 23.8549 10.0948 24.38 10.6199C24.9051 11.145 25.2001 11.8572 25.2001 12.5998V25.2C25.2001 25.9426 24.9051 26.6548 24.38 27.1799C23.8549 27.705 23.1427 28 22.4001 28H5.59991C4.8573 28 4.1451 27.705 3.61999 27.1799C3.09488 26.6548 2.79988 25.9426 2.79988 25.2V12.5998Z" fill="#383838"/>
</svg>
