<svg width="28" height="28" viewBox="0 0 28 28" fill="none" xmlns="http://www.w3.org/2000/svg">
<path d="M14 0C14.2599 0.000145355 14.5147 0.0760621 14.7357 0.219248C14.9568 0.362434 15.1354 0.567234 15.2516 0.810713L18.8635 8.37248L26.8012 9.58049C27.0598 9.61981 27.3027 9.73413 27.5025 9.9105C27.7022 10.0869 27.8509 10.3183 27.9316 10.5785C28.0123 10.8387 28.0218 11.1174 27.9591 11.3831C27.8964 11.6487 27.764 11.8906 27.5768 12.0815L21.7992 17.9808L23.0983 26.2991C23.1401 26.5683 23.1092 26.8445 23.0093 27.0964C22.9094 27.3483 22.7443 27.5661 22.5326 27.7251C22.321 27.8841 22.0711 27.9782 21.8112 27.9966C21.5513 28.0151 21.2916 27.9573 21.0614 27.8296L14 23.9065L6.9386 27.8296C6.70838 27.9573 6.4487 28.0151 6.18879 27.9966C5.92888 27.9782 5.67905 27.8841 5.46739 27.7251C5.25573 27.5661 5.09064 27.3483 4.9907 27.0964C4.89076 26.8445 4.85992 26.5683 4.90166 26.2991L6.20083 17.9808L0.423194 12.0815C0.236015 11.8906 0.103588 11.6487 0.0408959 11.3831C-0.0217965 11.1174 -0.0122529 10.8387 0.0684472 10.5785C0.149147 10.3183 0.297783 10.0869 0.497539 9.9105C0.697295 9.73413 0.940199 9.61981 1.19877 9.58049L9.13654 8.37248L12.7484 0.810713C12.8646 0.567234 13.0432 0.362434 13.2643 0.219248C13.4853 0.0760621 13.7401 0.000145355 14 0Z" fill="#FFB45C"/>
</svg>
